<svg xmlns="http://www.w3.org/2000/svg" viewBox="0 0 512 512">
  <defs>
    <linearGradient id="g" x1="0" y1="0" x2="1" y2="1">
      <stop offset="0" stop-color="#059669"/>
      <stop offset="1" stop-color="#14b8a6"/>
    </linearGradient>
  </defs>
  <rect width="512" height="512" rx="112" fill="url(#g)"/>
  <!-- scan frame corners -->
  <g stroke="#ffffff" stroke-width="26" stroke-linecap="round" fill="none" opacity="0.95">
    <path d="M120 176v-40a16 16 0 0 1 16-16h40"/>
    <path d="M336 120h40a16 16 0 0 1 16 16v40"/>
    <path d="M392 336v40a16 16 0 0 1-16 16h-40"/>
    <path d="M176 392h-40a16 16 0 0 1-16-16v-40"/>
  </g>
  <!-- barcode lines -->
  <g fill="#ffffff">
    <rect x="172" y="200" width="18" height="112" rx="6"/>
    <rect x="208" y="200" width="10" height="112" rx="5"/>
    <rect x="236" y="200" width="24" height="112" rx="6"/>
    <rect x="278" y="200" width="10" height="112" rx="5"/>
    <rect x="306" y="200" width="16" height="112" rx="6"/>
  </g>
  <!-- scan line -->
  <rect x="120" y="244" width="272" height="10" rx="5" fill="#fbbf24"/>
</svg>
